<svg width="55" height="55" viewBox="0 0 55 55" fill="none" xmlns="http://www.w3.org/2000/svg">
<path d="M51.9444 27.5C51.9444 28.7156 51.4615 29.8814 50.602 30.7409C49.7425 31.6005 48.5767 32.0833 47.3611 32.0833H7.63888C6.4233 32.0833 5.25751 31.6005 4.39797 30.7409C3.53843 29.8814 3.05554 28.7156 3.05554 27.5C3.05554 26.2844 3.53843 25.1186 4.39797 24.2591C5.25751 23.3996 6.4233 22.9167 7.63888 22.9167H47.3611C48.5767 22.9167 49.7425 23.3996 50.602 24.2591C51.4615 25.1186 51.9444 26.2844 51.9444 27.5Z" fill="white"/>
<path d="M27.5 16.8056C30.8751 16.8056 33.6111 14.0695 33.6111 10.6944C33.6111 7.31937 30.8751 4.58334 27.5 4.58334C24.1249 4.58334 21.3889 7.31937 21.3889 10.6944C21.3889 14.0695 24.1249 16.8056 27.5 16.8056Z" fill="white"/>
<path d="M27.5 50.4167C30.8751 50.4167 33.6111 47.6806 33.6111 44.3056C33.6111 40.9305 30.8751 38.1944 27.5 38.1944C24.1249 38.1944 21.3889 40.9305 21.3889 44.3056C21.3889 47.6806 24.1249 50.4167 27.5 50.4167Z" fill="#FEFEFF"/>
</svg>
