<svg width="212" height="209" viewBox="0 0 212 209" fill="none" xmlns="http://www.w3.org/2000/svg">
<ellipse cx="106" cy="104.5" rx="106" ry="104.5" fill="white"/>
<path d="M91.4286 70.5714H73.5714V88.4286C73.5714 89.3758 73.1952 90.2842 72.5254 90.954C71.8556 91.6237 70.9472 92 70 92C69.0528 92 68.1444 91.6237 67.4746 90.954C66.8048 90.2842 66.4286 89.3758 66.4286 88.4286V70.5714H48.5714C47.6242 70.5714 46.7158 70.1952 46.046 69.5254C45.3763 68.8556 45 67.9472 45 67C45 66.0528 45.3763 65.1444 46.046 64.4746C46.7158 63.8048 47.6242 63.4286 48.5714 63.4286H66.4286V45.5714C66.4286 44.6242 66.8048 43.7158 67.4746 43.046C68.1444 42.3763 69.0528 42 70 42C70.9472 42 71.8556 42.3763 72.5254 43.046C73.1952 43.7158 73.5714 44.6242 73.5714 45.5714V63.4286H91.4286C92.3758 63.4286 93.2842 63.8048 93.954 64.4746C94.6237 65.1444 95 66.0528 95 67C95 67.9472 94.6237 68.8556 93.954 69.5254C93.2842 70.1952 92.3758 70.5714 91.4286 70.5714Z" fill="#304155"/>
<path d="M166.429 70.1429H123.571C122.624 70.1429 121.716 69.7666 121.046 69.0968C120.376 68.427 120 67.5186 120 66.5714C120 65.6242 120.376 64.7158 121.046 64.046C121.716 63.3763 122.624 63 123.571 63H166.429C167.376 63 168.284 63.3763 168.954 64.046C169.624 64.7158 170 65.6242 170 66.5714C170 67.5186 169.624 68.427 168.954 69.0968C168.284 69.7666 167.376 70.1429 166.429 70.1429Z" fill="#304155"/>
<path d="M170.944 137.5C170.944 138.716 170.462 139.881 169.602 140.741C168.742 141.6 167.577 142.083 166.361 142.083H126.639C125.423 142.083 124.258 141.6 123.398 140.741C122.538 139.881 122.056 138.716 122.056 137.5C122.056 136.284 122.538 135.119 123.398 134.259C124.258 133.4 125.423 132.917 126.639 132.917H166.361C167.577 132.917 168.742 133.4 169.602 134.259C170.462 135.119 170.944 136.284 170.944 137.5Z" fill="#304155"/>
<path d="M146.5 126.806C149.875 126.806 152.611 124.07 152.611 120.694C152.611 117.319 149.875 114.583 146.5 114.583C143.125 114.583 140.389 117.319 140.389 120.694C140.389 124.07 143.125 126.806 146.5 126.806Z" fill="#304155"/>
<path d="M146.5 160.417C149.875 160.417 152.611 157.681 152.611 154.306C152.611 150.93 149.875 148.194 146.5 148.194C143.125 148.194 140.389 150.93 140.389 154.306C140.389 157.681 143.125 160.417 146.5 160.417Z" fill="#304155"/>
<path d="M95.9499 154.89C96.2828 155.221 96.5469 155.615 96.727 156.049C96.9072 156.483 97 156.949 97 157.418C97 157.888 96.9072 158.354 96.727 158.788C96.5469 159.222 96.2828 159.616 95.9499 159.947C95.2762 160.612 94.3677 160.985 93.4211 160.985C92.4744 160.985 91.5659 160.612 90.8922 159.947L72 141.055L53.1078 159.947C52.4341 160.612 51.5256 160.985 50.5789 160.985C49.6323 160.985 48.7238 160.612 48.0501 159.947C47.7172 159.616 47.4531 159.222 47.273 158.788C47.0928 158.354 47 157.888 47 157.418C47 156.949 47.0928 156.483 47.273 156.049C47.4531 155.615 47.7172 155.221 48.0501 154.89L66.9422 135.997L48.0501 117.105C47.3794 116.435 47.0026 115.525 47.0026 114.576C47.0026 114.107 47.0951 113.642 47.2748 113.208C47.4545 112.774 47.718 112.38 48.0501 112.047C48.3822 111.715 48.7764 111.452 49.2103 111.272C49.6442 111.093 50.1093 111 50.5789 111C51.5275 111 52.4371 111.377 53.1078 112.047L72 130.94L90.8922 112.047C91.5629 111.377 92.4725 111 93.4211 111C94.3696 111 95.2792 111.377 95.9499 112.047C96.6206 112.718 96.9974 113.628 96.9974 114.576C96.9974 115.525 96.6206 116.435 95.9499 117.105L77.0577 135.997L95.9499 154.89Z" fill="#304155"/>
</svg>
