<svg width="135" height="135" viewBox="0 0 135 135" fill="none" xmlns="http://www.w3.org/2000/svg">
<g clip-path="url(#clip0_6_33)">
<path d="M68.7079 88.1264C80.8094 88.1264 90.6197 78.3161 90.6197 66.2145C90.6197 54.1129 80.8094 44.3027 68.7079 44.3027C56.6063 44.3027 46.796 54.1129 46.796 66.2145C46.796 78.3161 56.6063 88.1264 68.7079 88.1264Z" fill="#FFB6B6"/>
<path d="M56.129 91.3666L55.1391 81.36L74.9072 77.6636L86.5801 106.085L66.2794 129.431L51.8151 101.009L56.129 91.3666Z" fill="#FFB6B6"/>
<path d="M54.8215 86.3689L59.1433 87.3453C59.1433 87.3453 55.7459 76.5721 56.8991 75.5436C58.0522 74.5151 60.878 76.1357 60.878 76.1357L63.8475 79.465L67.4646 75.7823C67.4646 75.7823 71.3915 70.8995 72.9291 69.5281C74.4666 68.1567 71.997 63.0665 71.997 63.0665C71.997 63.0665 94.8079 56.9155 86.3199 45.8515C86.3199 45.8515 81.3434 37.1769 79.7228 40.0027C78.1022 42.8285 76.1698 38.3405 76.1698 38.3405L70.2689 39.4626C70.2689 39.4626 58.6228 32.5958 47.5693 47.2859C36.5158 61.9761 54.8215 86.3689 54.8215 86.3689Z" fill="#2F2E41"/>
<path d="M109.918 120.016C97.9435 129.724 83.129 135 67.5 135C53.2286 135 39.6347 130.6 28.2637 122.444C28.284 122.231 28.3043 122.02 28.3221 121.81C28.6241 118.511 28.8931 115.303 29.0707 112.644C29.7584 102.318 53.8477 95.4364 53.8477 95.4364C53.8477 95.4364 53.9569 95.5455 54.1751 95.7358C55.5048 96.9031 60.9023 101.136 70.3675 102.318C78.8075 103.374 81.5862 98.3673 82.4261 95.9693C82.6799 95.2384 82.756 94.7487 82.756 94.7487L107.533 106.45C109.15 108.759 109.781 113.732 109.906 119.323C109.911 119.554 109.916 119.782 109.918 120.016Z" fill="#304155"/>
<mask id="path-5-inside-1_6_33" fill="white">
<path d="M115.23 19.7704C102.481 7.02152 85.5296 0 67.5 0C49.4704 0 32.5193 7.02152 19.7704 19.7704C7.02153 32.5193 0 49.4704 0 67.5C0 83.9563 5.84917 99.5143 16.568 111.799C17.5906 112.974 18.6589 114.118 19.7704 115.23C20.0318 115.491 20.2957 115.752 20.5621 116.006C21.2727 116.694 21.9959 117.366 22.7318 118.018C23.1784 118.417 23.6301 118.808 24.0869 119.191C24.4446 119.493 24.8025 119.79 25.1653 120.081C25.1729 120.089 25.178 120.094 25.1856 120.099C26.1931 120.911 27.2182 121.693 28.2637 122.444C39.6347 130.6 53.2286 135 67.5 135C83.129 135 97.9435 129.724 109.918 120.016C110.895 119.224 111.852 118.402 112.791 117.551C113.621 116.8 114.433 116.026 115.23 115.23C115.481 114.978 115.732 114.725 115.978 114.468C116.663 113.763 117.328 113.045 117.978 112.316C128.983 99.9533 135 84.1898 135 67.5C135 49.4704 127.978 32.5193 115.23 19.7704ZM117.813 111.685C117.178 112.405 116.529 113.116 115.864 113.809C114.829 114.887 113.76 115.933 112.656 116.94C112.238 117.326 111.814 117.701 111.385 118.074C110.898 118.498 110.406 118.914 109.906 119.323C105.965 122.558 101.648 125.35 97.0325 127.623C95.208 128.524 93.3378 129.344 91.4244 130.077C83.9918 132.929 75.9248 134.492 67.5 134.492C59.3696 134.492 51.5741 133.036 44.3597 130.371C41.3983 129.28 38.5359 127.984 35.7877 126.499C35.3842 126.281 34.9833 126.06 34.5849 125.834C32.4888 124.647 30.4613 123.35 28.515 121.949C28.4515 121.903 28.3855 121.855 28.3221 121.81C26.9366 120.81 25.5891 119.757 24.2873 118.65C23.8103 118.247 23.3383 117.838 22.8739 117.42C22.1177 116.747 21.3767 116.054 20.6535 115.344C19.2832 114.001 17.9738 112.603 16.7228 111.149C6.62059 99.4153 0.507519 84.1593 0.507519 67.5C0.507519 30.5602 30.5603 0.507519 67.5 0.507519C104.44 0.507519 134.492 30.5602 134.492 67.5C134.492 84.4156 128.192 99.8848 117.813 111.685Z"/>
</mask>
<path d="M115.23 19.7704C102.481 7.02152 85.5296 0 67.5 0C49.4704 0 32.5193 7.02152 19.7704 19.7704C7.02153 32.5193 0 49.4704 0 67.5C0 83.9563 5.84917 99.5143 16.568 111.799C17.5906 112.974 18.6589 114.118 19.7704 115.23C20.0318 115.491 20.2957 115.752 20.5621 116.006C21.2727 116.694 21.9959 117.366 22.7318 118.018C23.1784 118.417 23.6301 118.808 24.0869 119.191C24.4446 119.493 24.8025 119.79 25.1653 120.081C25.1729 120.089 25.178 120.094 25.1856 120.099C26.1931 120.911 27.2182 121.693 28.2637 122.444C39.6347 130.6 53.2286 135 67.5 135C83.129 135 97.9435 129.724 109.918 120.016C110.895 119.224 111.852 118.402 112.791 117.551C113.621 116.8 114.433 116.026 115.23 115.23C115.481 114.978 115.732 114.725 115.978 114.468C116.663 113.763 117.328 113.045 117.978 112.316C128.983 99.9533 135 84.1898 135 67.5C135 49.4704 127.978 32.5193 115.23 19.7704ZM117.813 111.685C117.178 112.405 116.529 113.116 115.864 113.809C114.829 114.887 113.76 115.933 112.656 116.94C112.238 117.326 111.814 117.701 111.385 118.074C110.898 118.498 110.406 118.914 109.906 119.323C105.965 122.558 101.648 125.35 97.0325 127.623C95.208 128.524 93.3378 129.344 91.4244 130.077C83.9918 132.929 75.9248 134.492 67.5 134.492C59.3696 134.492 51.5741 133.036 44.3597 130.371C41.3983 129.28 38.5359 127.984 35.7877 126.499C35.3842 126.281 34.9833 126.06 34.5849 125.834C32.4888 124.647 30.4613 123.35 28.515 121.949C28.4515 121.903 28.3855 121.855 28.3221 121.81C26.9366 120.81 25.5891 119.757 24.2873 118.65C23.8103 118.247 23.3383 117.838 22.8739 117.42C22.1177 116.747 21.3767 116.054 20.6535 115.344C19.2832 114.001 17.9738 112.603 16.7228 111.149C6.62059 99.4153 0.507519 84.1593 0.507519 67.5C0.507519 30.5602 30.5603 0.507519 67.5 0.507519C104.44 0.507519 134.492 30.5602 134.492 67.5C134.492 84.4156 128.192 99.8848 117.813 111.685Z" fill="#3F3D56"/>
<path d="M115.23 19.7704L114.522 20.4775L114.522 20.4775L115.23 19.7704ZM19.7704 19.7704L20.4775 20.4775L20.4775 20.4775L19.7704 19.7704ZM16.568 111.799L17.3223 111.142L17.3215 111.141L16.568 111.799ZM20.5621 116.006L21.2576 115.288L21.2518 115.282L20.5621 116.006ZM22.7318 118.018L23.3975 117.272L23.395 117.27L22.7318 118.018ZM24.0869 119.191L24.7318 118.427L24.7296 118.425L24.0869 119.191ZM25.1653 120.081L25.8724 119.374L25.8342 119.336L25.792 119.302L25.1653 120.081ZM25.1856 120.099L25.8132 119.321L25.7783 119.293L25.7411 119.268L25.1856 120.099ZM28.2637 122.444L27.6802 123.256L27.6809 123.257L28.2637 122.444ZM109.918 120.016L109.289 119.239L109.289 119.239L109.918 120.016ZM112.791 117.551L112.12 116.81L112.12 116.81L112.791 117.551ZM115.23 115.23L115.937 115.937L115.937 115.937L115.23 115.23ZM115.978 114.468L115.261 113.772L115.257 113.776L115.978 114.468ZM117.978 112.316L118.724 112.982L118.725 112.981L117.978 112.316ZM117.813 111.685L118.563 112.345L118.564 112.345L117.813 111.685ZM115.864 113.809L116.585 114.501L116.585 114.501L115.864 113.809ZM112.656 116.94L111.982 116.201L111.979 116.204L112.656 116.94ZM111.385 118.074L110.729 117.32L110.729 117.32L111.385 118.074ZM109.906 119.323L109.273 118.548L109.271 118.55L109.906 119.323ZM97.0325 127.623L96.5906 126.726L96.5898 126.727L97.0325 127.623ZM91.4244 130.077L91.0665 129.143L91.0662 129.143L91.4244 130.077ZM44.3597 130.371L44.7061 129.433L44.7054 129.433L44.3597 130.371ZM35.7877 126.499L35.312 127.379L35.3124 127.379L35.7877 126.499ZM34.5849 125.834L35.078 124.964L35.0778 124.964L34.5849 125.834ZM28.515 121.949L27.9307 122.761L27.9308 122.761L28.515 121.949ZM28.3221 121.81L27.7369 122.621L27.7378 122.621L28.3221 121.81ZM24.2873 118.65L24.9349 117.888L24.9331 117.887L24.2873 118.65ZM22.8739 117.42L23.5435 116.677L23.5384 116.672L22.8739 117.42ZM20.6535 115.344L21.3543 114.63L21.3533 114.629L20.6535 115.344ZM16.7228 111.149L17.4808 110.497L17.4806 110.497L16.7228 111.149ZM115.937 19.0633C103 6.12688 85.7948 -1 67.5 -1V1C85.2644 1 101.961 7.91616 114.522 20.4775L115.937 19.0633ZM67.5 -1C49.2052 -1 31.9997 6.12688 19.0633 19.0633L20.4775 20.4775C33.0388 7.91616 49.7356 1 67.5 1V-1ZM19.0633 19.0633C6.12689 31.9997 -1 49.2052 -1 67.5H1C1 49.7356 7.91617 33.0388 20.4775 20.4775L19.0633 19.0633ZM-1 67.5C-1 84.1975 4.93639 99.9892 15.8145 112.456L17.3215 111.141C6.76195 99.0394 1 83.7151 1 67.5H-1ZM15.8137 112.455C16.8516 113.648 17.9357 114.809 19.0633 115.937L20.4775 114.522C19.3822 113.427 18.3296 112.3 17.3223 111.142L15.8137 112.455ZM19.0633 115.937C19.3264 116.2 19.5971 116.468 19.8725 116.73L21.2518 115.282C20.9943 115.037 20.7372 114.782 20.4775 114.522L19.0633 115.937ZM19.8667 116.725C20.5867 117.422 21.3207 118.104 22.0685 118.767L23.395 117.27C22.6711 116.628 21.9586 115.966 21.2576 115.288L19.8667 116.725ZM22.0661 118.765C22.5203 119.17 22.9796 119.567 23.4442 119.957L24.7296 118.425C24.2806 118.048 23.8365 117.664 23.3975 117.272L22.0661 118.765ZM23.4419 119.955C23.8038 120.26 24.1679 120.563 24.5386 120.861L25.792 119.302C25.437 119.017 25.0855 118.725 24.7318 118.427L23.4419 119.955ZM24.4582 120.789C24.4587 120.789 24.5289 120.863 24.6302 120.931L25.7411 119.268C25.8272 119.325 25.8872 119.389 25.8724 119.374L24.4582 120.789ZM24.5581 120.878C25.5795 121.701 26.6194 122.494 27.6802 123.256L28.8472 121.632C27.8171 120.892 26.8066 120.121 25.8132 119.321L24.5581 120.878ZM27.6809 123.257C39.2224 131.535 53.0202 136 67.5 136V134C53.4369 134 40.047 129.665 28.8466 121.631L27.6809 123.257ZM67.5 136C83.3578 136 98.3947 130.646 110.548 120.792L109.289 119.239C97.4923 128.803 82.9003 134 67.5 134V136ZM110.548 120.792C111.54 119.989 112.511 119.154 113.462 118.293L112.12 116.81C111.194 117.649 110.251 118.459 109.289 119.239L110.548 120.792ZM113.462 118.293C114.305 117.53 115.129 116.745 115.937 115.937L114.523 114.522C113.737 115.308 112.937 116.071 112.12 116.81L113.462 118.293ZM115.937 115.937C116.19 115.683 116.447 115.424 116.699 115.161L115.257 113.776C115.018 114.025 114.772 114.273 114.522 114.522L115.937 115.937ZM116.696 115.165C117.392 114.448 118.066 113.72 118.724 112.982L117.232 111.651C116.59 112.37 115.935 113.078 115.261 113.772L116.696 115.165ZM118.725 112.981C129.894 100.435 136 84.4345 136 67.5H134C134 83.945 128.073 99.4718 117.231 111.652L118.725 112.981ZM136 67.5C136 49.2052 128.873 31.9997 115.937 19.0633L114.522 20.4775C127.084 33.0388 134 49.7356 134 67.5H136ZM117.062 111.024C116.436 111.735 115.796 112.435 115.143 113.116L116.585 114.501C117.261 113.797 117.921 113.075 118.563 112.345L117.062 111.024ZM115.143 113.116C114.122 114.179 113.069 115.21 111.982 116.201L113.331 117.679C114.452 116.655 115.536 115.595 116.585 114.501L115.143 113.116ZM111.979 116.204C111.569 116.582 111.153 116.951 110.729 117.32L112.041 118.829C112.475 118.452 112.906 118.07 113.334 117.675L111.979 116.204ZM110.729 117.32C110.249 117.737 109.764 118.147 109.273 118.548L110.539 120.097C111.047 119.681 111.547 119.259 112.041 118.829L110.729 117.32ZM109.271 118.55C105.389 121.737 101.137 124.487 96.5906 126.726L97.4744 128.52C102.16 126.212 106.541 123.379 110.54 120.096L109.271 118.55ZM96.5898 126.727C94.7926 127.614 92.9507 128.421 91.0665 129.143L91.7823 131.011C93.7249 130.266 95.6234 129.434 97.4752 128.52L96.5898 126.727ZM91.0662 129.143C83.746 131.953 75.8002 133.492 67.5 133.492V135.492C76.0494 135.492 84.2377 133.906 91.7827 131.011L91.0662 129.143ZM67.5 133.492C59.4898 133.492 51.8115 132.058 44.7061 129.433L44.0132 131.309C51.3366 134.014 59.2493 135.492 67.5 135.492V133.492ZM44.7054 129.433C41.7891 128.359 38.9699 127.081 36.263 125.619L35.3124 127.379C38.1019 128.886 41.0075 130.202 44.0139 131.31L44.7054 129.433ZM36.2634 125.619C35.8643 125.404 35.4693 125.186 35.078 124.964L34.0917 126.704C34.4972 126.934 34.9041 127.158 35.312 127.379L36.2634 125.619ZM35.0778 124.964C33.0127 123.794 31.0157 122.517 29.0991 121.137L27.9308 122.761C29.9069 124.183 31.9649 125.499 34.0919 126.704L35.0778 124.964ZM29.0992 121.138C29.0692 121.116 29.0384 121.094 29.0057 121.07C28.9737 121.047 28.9398 121.022 28.9064 120.998L27.7378 122.621C27.7678 122.643 27.7987 122.665 27.8313 122.689C27.8634 122.712 27.8972 122.737 27.9307 122.761L29.0992 121.138ZM28.9073 120.999C27.5424 120.014 26.2159 118.977 24.9349 117.888L23.6397 119.412C24.9623 120.536 26.3307 121.606 27.7369 122.62L28.9073 120.999ZM24.9331 117.887C24.4617 117.488 23.998 117.087 23.5435 116.677L22.2043 118.162C22.6785 118.59 23.1588 119.006 23.6416 119.414L24.9331 117.887ZM23.5384 116.672C22.7946 116.011 22.0658 115.329 21.3543 114.63L19.9527 116.057C20.6877 116.779 21.4407 117.483 22.2094 118.167L23.5384 116.672ZM21.3533 114.629C20.0035 113.307 18.7135 111.93 17.4808 110.497L15.9647 111.801C17.2341 113.277 18.5629 114.696 19.9537 116.058L21.3533 114.629ZM17.4806 110.497C7.52818 98.9368 1.50752 83.9101 1.50752 67.5H-0.492481C-0.492481 84.4085 5.713 99.8938 15.9649 111.802L17.4806 110.497ZM1.50752 67.5C1.50752 31.1125 31.1125 1.50752 67.5 1.50752V-0.492481C30.008 -0.492481 -0.492481 30.008 -0.492481 67.5H1.50752ZM67.5 1.50752C103.887 1.50752 133.492 31.1125 133.492 67.5H135.492C135.492 30.008 104.992 -0.492481 67.5 -0.492481V1.50752ZM133.492 67.5C133.492 84.1626 127.287 99.3993 117.062 111.024L118.564 112.345C129.096 100.37 135.492 84.6686 135.492 67.5H133.492Z" fill="#3F3D56" mask="url(#path-5-inside-1_6_33)"/>
</g>
<defs>
<clipPath id="clip0_6_33">
<rect width="135" height="135" fill="white"/>
</clipPath>
</defs>
</svg>
