<svg width="50" height="50" viewBox="0 0 50 50" fill="none" xmlns="http://www.w3.org/2000/svg">
<path d="M48.9499 43.8896C49.2828 44.2213 49.5469 44.6154 49.727 45.0494C49.9072 45.4833 50 45.9486 50 46.4185C50 46.8884 49.9072 47.3536 49.727 47.7876C49.5469 48.2216 49.2828 48.6157 48.9499 48.9474C48.2762 49.6123 47.3677 49.9852 46.4211 49.9852C45.4744 49.9852 44.5659 49.6123 43.8922 48.9474L25 30.0552L6.10782 48.9474C5.4341 49.6123 4.52557 49.9852 3.57894 49.9852C2.63232 49.9852 1.72378 49.6123 1.05007 48.9474C0.717232 48.6157 0.453146 48.2216 0.272951 47.7876C0.0927573 47.3536 0 46.8884 0 46.4185C0 45.9486 0.0927573 45.4833 0.272951 45.0494C0.453146 44.6154 0.717232 44.2213 1.05007 43.8896L19.9422 24.9974L1.05007 6.10524C0.379368 5.43454 0.00257288 4.52488 0.00257288 3.57637C0.00257288 3.10671 0.0950788 2.64166 0.274808 2.20775C0.454538 1.77385 0.717971 1.37959 1.05007 1.04749C1.38216 0.715398 1.77642 0.451965 2.21033 0.272235C2.64423 0.0925059 3.10929 0 3.57894 0C4.52745 0 5.43712 0.376795 6.10782 1.04749L25 19.9397L43.8922 1.04749C44.5629 0.376795 45.4725 0 46.4211 0C47.3696 0 48.2792 0.376795 48.9499 1.04749C49.6206 1.71819 49.9974 2.62786 49.9974 3.57637C49.9974 4.52488 49.6206 5.43454 48.9499 6.10524L30.0577 24.9974L48.9499 43.8896Z" fill="white"/>
</svg>
