<svg width="392" height="343" viewBox="0 0 392 343" fill="none" xmlns="http://www.w3.org/2000/svg">
<rect x="-71" y="-7" width="467" height="204" fill="#304155"/>
<path fill-rule="evenodd" clip-rule="evenodd" d="M571 320.778H562.06C553.12 320.778 534.743 320.778 516.863 291.148C498.983 261.519 480.607 202.259 462.727 172.63C444.35 143 426.47 143 408.59 180.037C390.213 217.074 372.333 291.148 354.453 309.667C336.077 328.185 318.197 291.148 300.317 265.222C281.94 239.296 264.06 224.481 245.683 217.074C227.803 209.667 209.923 209.667 191.547 217.074C173.667 224.481 155.787 239.296 137.41 254.111C119.53 268.926 101.65 283.741 83.2733 272.63C65.3933 261.519 47.0167 224.481 29.1367 231.889C11.2567 239.296 -7.12 291.148 -16.06 317.074L-25 343V143H-16.06C-7.12 143 11.2567 143 29.1367 143C47.0167 143 65.3933 143 83.2733 143C101.65 143 119.53 143 137.41 143C155.787 143 173.667 143 191.547 143C209.923 143 227.803 143 245.683 143C264.06 143 281.94 143 300.317 143C318.197 143 336.077 143 354.453 143C372.333 143 390.213 143 408.59 143C426.47 143 444.35 143 462.727 143C480.607 143 498.983 143 516.863 143C534.743 143 553.12 143 562.06 143H571V320.778Z" fill="#304155"/>
</svg>
