<svg width="392" height="199" viewBox="0 0 392 199" fill="none" xmlns="http://www.w3.org/2000/svg">
<rect width="467" height="204" transform="matrix(1 0 0 -1 -51 350)" fill="#304155"/>
<path fill-rule="evenodd" clip-rule="evenodd" d="M591 22.2222H582.06C573.12 22.2222 554.743 22.2222 536.863 51.8519C518.983 81.4815 500.607 140.741 482.727 170.37C464.35 200 446.47 200 428.59 162.963C410.213 125.926 392.333 51.8519 374.453 33.3333C356.077 14.8148 338.197 51.8519 320.317 77.7778C301.94 103.704 284.06 118.519 265.683 125.926C247.803 133.333 229.923 133.333 211.547 125.926C193.667 118.519 175.787 103.704 157.41 88.8889C139.53 74.0741 121.65 59.2593 103.273 70.3704C85.3933 81.4815 67.0167 118.519 49.1367 111.111C31.2567 103.704 12.88 51.8519 3.94 25.9259L-5 0V200H3.94C12.88 200 31.2567 200 49.1367 200C67.0167 200 85.3933 200 103.273 200C121.65 200 139.53 200 157.41 200C175.787 200 193.667 200 211.547 200C229.923 200 247.803 200 265.683 200C284.06 200 301.94 200 320.317 200C338.197 200 356.077 200 374.453 200C392.333 200 410.213 200 428.59 200C446.47 200 464.35 200 482.727 200C500.607 200 518.983 200 536.863 200C554.743 200 573.12 200 582.06 200H591V22.2222Z" fill="#304155"/>
</svg>
